<?xml version="1.0" encoding="UTF-8"?>
<svg width="2048" height="2048" version="1.1" viewBox="0 0 2048 2048" xmlns="http://www.w3.org/2000/svg">
 <path d="m1023.9 0c-565.45 0-1023.9 458.46-1023.9 1024 0 452.42 293.38 836.2 700.29 971.67 51.233 9.3665 69.903-22.253 69.903-49.41 0-24.265-0.88008-88.699-1.383-174.13-284.83 61.857-344.93-137.29-344.93-137.29-46.581-118.24-113.72-149.74-113.72-149.74-92.974-63.554 7.0406-62.297 7.0406-62.297 102.78 7.2921 156.84 105.55 156.84 105.55 91.339 156.46 239.7 111.27 298.03 85.116 9.3037-66.194 35.706-111.33 65-136.91-227.37-25.836-466.44-113.72-466.44-506.11 0-111.77 39.918-203.17 105.42-274.77-10.561-25.899-45.701-130 9.9952-271 0 0 85.996-27.534 281.62 104.98 81.658-22.693 169.29-34.072 256.35-34.449 86.939 0.3772 174.57 11.755 256.35 34.449 195.5-132.51 281.31-104.98 281.31-104.98 55.885 141 20.745 245.1 10.184 271 65.628 71.6 105.29 163 105.29 274.77 0 393.39-239.44 479.96-467.57 505.29 36.775 31.62 69.526 94.105 69.526 189.66 0 136.85-1.2573 247.3-1.2573 280.87 0 27.408 18.419 59.279 70.406 49.284 406.6-135.72 699.72-519.24 699.72-971.54 0-565.57-458.52-1024-1024.1-1024"/>
</svg>
