<?xml version="1.0" encoding="UTF-8"?>
<svg width="2048" height="2048" version="1.1" viewBox="0 0 2048 2048" xmlns="http://www.w3.org/2000/svg">
 <path d="m1021 1.542e-7c-261.83 2.1406-513.68 30.487-660.46 97.893 0 0-291.09 130.22-291.09 574.49 0 101.73-1.9806 223.38 1.2413 352.38 10.571 434.48 79.655 862.67 481.36 969 185.22 49.024 344.24 59.278 472.31 52.239 232.26-12.876 362.64-82.875 362.64-82.875l-7.6721-168.53s-165.97 52.341-352.37 45.963c-184.68-6.3336-379.63-19.907-409.5-246.65-2.7585-19.917-4.1378-41.218-4.1378-63.583 0 0 181.28 44.316 411.04 54.843 140.49 6.4439 272.23-8.2393 406.04-24.206 256.61-30.641 480.04-188.74 508.12-333.21 44.246-227.58 40.602-555.37 40.602-555.37 0-444.27-291.07-574.49-291.07-574.49-146.76-67.407-398.78-95.753-660.61-97.893zm-296.32 347.14c109.06 0 191.64 41.923 246.25 125.77l53.084 88.979 53.101-88.979c54.596-83.848 137.18-125.77 246.25-125.77 94.253 0 170.2 33.135 228.2 97.772 56.218 64.637 84.204 151.99 84.204 261.94v537.94h-213.13v-522.12c0-110.07-46.295-165.94-138.93-165.94-102.42 0-153.75 66.28-153.75 197.32v285.78h-211.87v-285.78c0-131.04-51.334-197.32-153.75-197.32-92.631 0-138.94 55.877-138.94 165.94v522.12h-213.13v-537.94c0-109.94 27.991-197.3 84.221-261.94 57.984-64.637 133.93-97.772 228.2-97.772z" stroke-width="8.8272"/>
</svg>
