<?xml version="1.0" encoding="UTF-8"?>
<svg width="2048" height="2048" version="1.1" viewBox="0 0 2048 2048" xmlns="http://www.w3.org/2000/svg">
 <g transform="translate(0 244.87)">
  <g transform="matrix(33.032 0 0 33.032 2e-6 -231.65)">
   <path transform="matrix(.030273 0 0 .030273 -6.0547e-8 -.4)" d="m1024 13.213c-214.71 0-389.78 175.07-389.78 389.78v125.52h-634.22v1370.8c0 82.581 66.064 148.64 148.64 148.64h1750.7c82.581 0 148.64-66.064 148.64-148.64v-1370.8h-472.36v-46.244c0-125.52-59.458-241.14-158.55-313.81 49.548 66.065 79.277 148.65 79.277 234.53v125.52h-82.58v-125.52c0-214.71-175.07-389.78-389.78-389.78zm-3.3027 79.277c168.46 3.3032 303.9 138.74 310.5 310.5v125.52h-455.84v-46.244c0-171.77 138.73-310.5 307.2-310.5 13.213 0 29.728-4.9e-4 42.941 3.3027-39.639-16.516-79.277-26.426-122.22-26.426-99.097 0-194.89 49.549-251.04 128.83-36.335 62.761-56.154 132.13-56.154 204.8v46.244h-82.582v-125.52c0-171.77 138.74-310.5 307.2-310.5zm-426.12 766.35h396.39v396.39h-396.39v-396.39zm462.45 0h396.39v396.39h-396.39v-396.39zm-462.45 462.45h396.39v396.39h-396.39v-396.39zm462.45 0h396.39v396.39h-396.39v-396.39z" stroke-width="33.032"/>
  </g>
 </g>
 <style type="text/css">.st0{fill:#F25022;}
	.st1{fill:#7FBA00;}
	.st2{fill:#00A4EF;}
	.st3{fill:#FFB900;}</style>
</svg>
