<?xml version="1.0" encoding="UTF-8"?>
<!-- Created with Inkscape (http://www.inkscape.org/) -->
<svg width="2048" height="2048" version="1.1" viewBox="0 0 2048 2048" xmlns="http://www.w3.org/2000/svg" xmlns:cc="http://creativecommons.org/ns#" xmlns:dc="http://purl.org/dc/elements/1.1/" xmlns:rdf="http://www.w3.org/1999/02/22-rdf-syntax-ns#">
 <metadata>
  <rdf:RDF>
   <cc:Work rdf:about="">
    <dc:format>image/svg+xml</dc:format>
    <dc:type rdf:resource="http://purl.org/dc/dcmitype/StillImage"/>
    <dc:title/>
   </cc:Work>
  </rdf:RDF>
 </metadata>
 <g transform="translate(0 925.48)">
  <path class="cls-2" d="m644.06 930.57c772.83 0 1195.5-640.28 1195.5-1195.5 0-18.176 0-36.288-1.2288-54.31a854.92 854.92 0 0 0 209.63-217.5 838.7 838.7 0 0 1-241.34 66.112 421.64 421.64 0 0 0 184.73-232.41 842.06 842.06 0 0 1-266.81 101.99 420.58 420.58 0 0 0-716.06 383.22 1192.9 1192.9 0 0 1-865.98-439 420.5 420.5 0 0 0 130.09 560.91 417.05 417.05 0 0 1-190.71-52.595v5.376a420.33 420.33 0 0 0 337.1 411.89 419.51 419.51 0 0 1-189.73 7.168 420.66 420.66 0 0 0 392.56 291.8 843.12 843.12 0 0 1-521.83 180.22 855.33 855.33 0 0 1-100.02-6.016 1189.6 1189.6 0 0 0 644.06 188.42" stroke-width="8.192"/>
 </g>
</svg>
